<?xml version="1.0" encoding="UTF-8"?>
<svg version="1.1" xmlns="http://www.w3.org/2000/svg" width="1000" height="1000">
<path d="M0 0 C1.6025371 0.00138269 1.6025371 0.00138269 3.23744869 0.00279331 C4.45887569 0.00141865 5.6803027 0.00004398 6.93874264 -0.00137234 C8.3046639 0.00216727 9.67058492 0.00580208 11.0365057 0.00952244 C12.46520644 0.00980431 13.89390733 0.00964659 15.32260799 0.00907993 C19.21293315 0.00879194 23.10322774 0.01468896 26.99354577 0.02165389 C31.05481548 0.02788713 35.11608582 0.0284912 39.17735958 0.0296793 C46.87322276 0.0327927 54.56907181 0.04100622 62.26492876 0.05102879 C71.02415457 0.06218964 79.78338105 0.0677003 88.5426122 0.07272422 C106.56589397 0.08318882 124.58916257 0.10078844 142.61243343 0.12304783 C141.8463237 3.42586524 140.71867786 6.0377777 139.09290218 9.02539158 C138.57163754 9.9867905 138.05037289 10.94818943 137.51331234 11.93872166 C136.9478973 12.96892429 136.38248226 13.99912693 135.79993343 15.06054783 C135.21389339 16.13522312 134.62785336 17.20989841 134.02405453 18.31713963 C129.86110704 25.92194263 125.59899328 33.46574642 121.27307796 40.97876072 C117.17004514 48.11333798 113.16246029 55.29836066 109.17493343 62.49804783 C103.979075 71.87724182 98.74269192 81.23154832 93.45642757 90.56005955 C89.48622714 97.568722 85.54375024 104.59250772 81.61243343 111.62304783 C77.13214007 119.63429939 72.63437233 127.63522874 68.11243343 135.62304783 C61.23870947 147.76714876 54.42341407 159.94367706 47.61243343 172.12304783 C22.27190527 217.43688805 22.27190527 217.43688805 13.61243343 232.12304783 C14.24818295 232.00187595 14.88393246 231.88070408 15.53894711 231.75586033 C65.35165125 222.528821 113.38922456 231.27917489 155.59046078 259.69873142 C161.88869936 264.13533175 167.7800779 269.09793327 173.61243343 274.12304783 C174.1583514 274.59307224 174.70426937 275.06309666 175.26673031 275.54736423 C181.20144623 280.70188578 186.64360177 286.03773779 191.61243343 292.12304783 C192.04136898 292.63432224 192.47030453 293.14559666 192.91223812 293.67236423 C200.72298186 302.98761481 207.50333517 312.6152934 213.61243343 323.12304783 C214.14562191 324.02676121 214.14562191 324.02676121 214.68958187 324.94873142 C221.02693828 335.79364414 225.49604166 347.27895125 229.61243343 359.12304783 C229.86653988 359.85249607 230.12064632 360.58194431 230.38245296 361.33349705 C248.0809941 413.39598811 240.40627333 471.44776642 216.64026546 520.11377048 C206.73556097 540.04893754 193.32741502 557.65341713 177.97766781 573.69482517 C176.75808758 574.97067359 175.55153253 576.25894345 174.34680843 577.54882908 C168.01777365 584.14743386 160.90697556 589.64724162 153.61243343 595.12304783 C153.04363461 595.55262791 152.47483578 595.98220798 151.88880062 596.42480564 C112.24315588 626.17621669 64.88461373 640.62263519 15.54993343 640.43554783 C14.55387081 640.43372501 13.55780819 640.4319022 12.53156185 640.43002415 C-1.97845885 640.38528781 -16.11409561 639.93730098 -30.38756657 637.12304783 C-31.75485905 636.87361423 -31.75485905 636.87361423 -33.1497736 636.61914158 C-68.12876905 630.18457931 -101.57879415 616.5224426 -129.38756657 594.12304783 C-129.90093571 593.71119236 -130.41430485 593.29933689 -130.94323063 592.87500095 C-154.56152314 573.80254859 -172.55913297 550.61454146 -185.38756657 523.12304783 C-185.9225275 521.98222752 -186.45748844 520.8414072 -187.00866032 519.66601658 C-209.16807857 470.22461326 -210.74339989 412.60755528 -191.82506657 362.12304783 C-190.39068146 358.43735659 -188.90170721 354.77663978 -187.38756657 351.12304783 C-186.99907536 350.18380466 -186.61058414 349.2445615 -186.21032047 348.27685642 C-178.67488702 330.33238267 -169.94205971 312.94703143 -161.25214481 295.54257679 C-160.34020716 293.71587593 -159.42935113 291.88863855 -158.51854801 290.0613718 C-151.60735594 276.21681055 -144.50832592 262.50989183 -137.03820133 248.95874119 C-133.52514092 242.57850957 -130.19882053 236.10993326 -126.88756657 229.62304783 C-122.0283995 220.15677197 -117.06820535 210.75555644 -111.94176579 201.43066502 C-107.91466085 194.10500355 -103.95401066 186.74510355 -100.01256657 179.37304783 C-98.73793732 176.9901763 -97.46313588 174.6073969 -96.18834782 172.22461033 C-95.8724419 171.63405354 -95.55653599 171.04349674 -95.23105717 170.43504429 C-87.19037724 155.40673929 -79.10253855 140.40448147 -70.92589664 125.44970798 C-67.05096283 118.3562394 -63.21465187 111.24242922 -59.38756657 104.12304783 C-54.59890146 95.21487606 -49.77867084 86.32496045 -44.92662907 77.45117283 C-41.05157036 70.35715002 -37.21500191 63.24286133 -33.38756657 56.12304783 C-27.58347382 45.32891397 -21.7420389 34.5559933 -15.85631657 23.8061533 C-14.84247116 21.95406537 -13.82950469 20.10149614 -12.81725407 18.24853611 C-11.28002822 15.4348638 -9.74041002 12.62251438 -8.20006657 9.81054783 C-7.72996159 8.94961521 -7.25985661 8.08868259 -6.77550602 7.20166111 C-6.34455631 6.41646091 -5.91360661 5.63126072 -5.46959782 4.82226658 C-5.09037174 4.12963718 -4.71114567 3.43700779 -4.32042789 2.72338963 C-2.81757077 0.14520892 -2.81757077 0.14520892 0 0 Z M-54.82116032 358.89257908 C-63.9524072 370.46093518 -70.94293453 383.77358619 -74.38756657 398.12304783 C-74.61057438 398.95062595 -74.83358219 399.77820408 -75.06334782 400.63086033 C-79.49649163 419.87130761 -76.19204095 440.30088991 -68.38756657 458.12304783 C-68.00729313 458.99574314 -67.62701969 459.86843845 -67.23522282 460.76757908 C-64.09449166 467.48261035 -59.95495145 473.30455939 -55.38756657 479.12304783 C-54.79330875 479.88488377 -54.19905094 480.6467197 -53.58678532 481.43164158 C-38.43768982 499.63001969 -15.91609628 511.0567406 7.47376156 513.72461033 C33.18203874 516.02311519 57.84523958 508.66550008 77.97473812 492.50000095 C96.20193035 477.17481249 110.10250012 455.16820901 112.61243343 431.12304783 C114.16718878 402.86967296 108.16628464 378.63041075 89.23743343 356.93554783 C72.07807931 338.63418891 49.99232651 326.00560864 24.56946468 324.74023533 C-6.9048023 323.85475161 -33.83711577 335.01186064 -54.82116032 358.89257908 Z " fill="#000000" transform="translate(621.3875665664673,203.87695217132568)"/>
<path d="M0 0 C0 210.54 0 421.08 0 638 C-42.24 638 -84.48 638 -128 638 C-128 481.58 -128 325.16 -128 164 C-136.58 166.64 -145.16 169.28 -154 172 C-160.57662175 173.92766863 -167.15063044 175.85215968 -173.7409668 177.73046875 C-176.52078922 178.52376891 -179.29847521 179.32429194 -182.07617188 180.125 C-183.86185736 180.63584265 -185.64765978 181.14627677 -187.43359375 181.65625 C-188.66607094 182.01233337 -188.66607094 182.01233337 -189.92344666 182.37561035 C-193.03462652 183.25720206 -195.749286 184 -199 184 C-199 140.11 -199 96.22 -199 51 C-178.0133785 44.0044595 -157.01832075 37.12763212 -135.89672852 30.56689453 C-133.35137865 29.77354675 -130.80628088 28.97945791 -128.26171875 28.18359375 C-127.6188624 27.98265862 -126.97600605 27.78172348 -126.3136692 27.5746994 C-116.95267643 24.64127898 -107.65841785 21.54183042 -98.38726807 18.33628845 C-92.9012475 16.44009036 -87.40146168 14.58520455 -81.89897156 12.73741627 C-77.46158081 11.24338788 -73.04152808 9.7121269 -68.64039993 8.11423683 C-43.97050587 -0.56096418 -27.88863731 0 0 0 Z " fill="#000000" transform="translate(336,196)"/>
</svg>
